@startuml speichermedium
' === Speichermedium ===
package Speichermedium {
    ' SpeicherUtilities
    class SpeicherUtilities {
        - Location: String
        __public method__
        + deleteData(data_client_input: String) : boolean
        + searchData(data_client_input: String) : Util.Data
        + saveData(data: Util.Data) : boolean
        + setLocation(config_input: String) : boolean
        + getLocation() : String
    }

    ' Andere Module
    SpeicherUtilities -- Config : < Location
    SpeicherUtilities -- CodeCharts : < Data
    SpeicherUtilities -- ZoomMaps : < Data
    SpeicherUtilities -- EyeTracking : < Data
    SpeicherUtilities -- AnalyseClient : > Data
}

package Util {

    class Data<t: ToolType> {
        + t: ToolType
        + data: unknown
        + config_id: int
    }

    note right of Data
        Beinhaltet dann die Struktur/Variablen für die verschiedenen Daten,
        die abgespeichert werden
    end note

    ' Interaktionen
    ToolType -- Data::type

    ' ToolType
    enum ToolType {
        ZOOM
        EYETRACKING
        CODECHARTS
    }

}
' Blackboxen / Andere Module
package Config {}
package CodeCharts {}
package ZoomMaps {}
package EyeTracking {}
package AnalyseClient {}

@enduml
